<svg width="24" height="22" viewBox="0 0 24 22" fill="none" xmlns="http://www.w3.org/2000/svg">
<path d="M9 7.27002C9 7.86676 8.76295 8.43905 8.34099 8.86101C7.91903 9.28297 7.34674 9.52002 6.75 9.52002C6.15326 9.52002 5.58097 9.28297 5.15901 8.86101C4.73705 8.43905 4.5 7.86676 4.5 7.27002C4.5 6.67328 4.73705 6.10099 5.15901 5.67903C5.58097 5.25707 6.15326 5.02002 6.75 5.02002C7.34674 5.02002 7.91903 5.25707 8.34099 5.67903C8.76295 6.10099 9 6.67328 9 7.27002Z" fill="white"/>
<path d="M3 0.52002C2.20435 0.52002 1.44129 0.83609 0.87868 1.3987C0.316071 1.96131 0 2.72437 0 3.52002V18.52C0 19.3157 0.316071 20.0787 0.87868 20.6413C1.44129 21.2039 2.20435 21.52 3 21.52H21C21.7956 21.52 22.5587 21.2039 23.1213 20.6413C23.6839 20.0787 24 19.3157 24 18.52V3.52002C24 2.72437 23.6839 1.96131 23.1213 1.3987C22.5587 0.83609 21.7956 0.52002 21 0.52002H3ZM21 2.02002C21.3978 2.02002 21.7794 2.17805 22.0607 2.45936C22.342 2.74066 22.5 3.12219 22.5 3.52002V13.27L16.8345 10.3495C16.6938 10.2791 16.5346 10.2546 16.3792 10.2796C16.2239 10.3047 16.0804 10.3779 15.969 10.489L10.404 16.054L6.414 13.396C6.26994 13.3001 6.09714 13.257 5.92491 13.2739C5.75267 13.2909 5.5916 13.3669 5.469 13.489L1.5 17.02V3.52002C1.5 3.12219 1.65804 2.74066 1.93934 2.45936C2.22064 2.17805 2.60218 2.02002 3 2.02002H21Z" fill="white"/>
</svg>
