<svg width="29" height="29" viewBox="0 0 29 29" fill="none" xmlns="http://www.w3.org/2000/svg">
<path d="M25.2001 14.4C25.2001 14.4 21.6001 21.6 14.4001 21.6C7.2001 21.6 3.6001 14.4 3.6001 14.4C3.6001 14.4 7.2001 7.20001 14.4001 7.20001C21.6001 7.20001 25.2001 14.4 25.2001 14.4ZM14.4001 16.8C14.8748 16.8 15.3388 16.6593 15.7335 16.3955C16.1281 16.1318 16.4358 15.757 16.6174 15.3185C16.7991 14.8799 16.8466 14.3974 16.754 13.9318C16.6614 13.4662 16.4328 13.0386 16.0972 12.703C15.7615 12.3673 15.3339 12.1387 14.8683 12.0461C14.4028 11.9535 13.9202 12.0011 13.4817 12.1827C13.0431 12.3644 12.6683 12.672 12.4046 13.0666C12.1409 13.4613 12.0001 13.9253 12.0001 14.4C12.0001 15.0365 12.253 15.647 12.703 16.0971C13.1531 16.5472 13.7636 16.8 14.4001 16.8Z" stroke="#ECE4E4" stroke-width="2.4" stroke-linecap="round" stroke-linejoin="round"/>
</svg>
