<svg fill="none" xmlns="http://www.w3.org/2000/svg" viewBox="0 0 43 42">
  <g filter="url(#P505mUQH-3gba)">
    <g filter="url(#P505mUQH-3gbb)">
      <circle cx="21.8" cy="16.8" r="16.8" fill="#fff"/>
    </g>
    <path d="M21.8 0C12.521 0 5 7.521 5 16.8s7.521 16.8 16.8 16.8 16.8-7.521 16.8-16.8S31.079 0 21.8 0zm0 32.55c-8.685 0-15.75-7.065-15.75-15.75 0-8.685 7.065-15.75 15.75-15.75 8.684 0 15.75 7.065 15.75 15.75 0 8.684-7.065 15.75-15.75 15.75z" fill="#fff"/>
    <path d="M16.801 8.521V25.1l14.358-8.29-14.358-8.289z" fill="#000"/>
  </g>
  <defs>
    <filter id="P505mUQH-3gba" x="5" y="0" width="33.6" height="37.8" filterUnits="userSpaceOnUse" color-interpolation-filters="sRGB">
      <feFlood flood-opacity="0" result="BackgroundImageFix"/>
      <feBlend in="SourceGraphic" in2="BackgroundImageFix" result="shape"/>
      <feColorMatrix in="SourceAlpha" values="0 0 0 0 0 0 0 0 0 0 0 0 0 0 0 0 0 0 127 0" result="hardAlpha"/>
      <feOffset dy="4.2"/>
      <feGaussianBlur stdDeviation="2.1"/>
      <feComposite in2="hardAlpha" operator="arithmetic" k2="-1" k3="1"/>
      <feColorMatrix values="0 0 0 0 0 0 0 0 0 0 0 0 0 0 0 0 0 0 0.25 0"/>
      <feBlend in2="shape" result="effect1_innerShadow_481_3611"/>
    </filter>
    <filter id="P505mUQH-3gbb" x=".8" y="0" width="42" height="42" filterUnits="userSpaceOnUse" color-interpolation-filters="sRGB">
      <feFlood flood-opacity="0" result="BackgroundImageFix"/>
      <feColorMatrix in="SourceAlpha" values="0 0 0 0 0 0 0 0 0 0 0 0 0 0 0 0 0 0 127 0" result="hardAlpha"/>
      <feOffset dy="4.2"/>
      <feGaussianBlur stdDeviation="2.1"/>
      <feComposite in2="hardAlpha" operator="out"/>
      <feColorMatrix values="0 0 0 0 0 0 0 0 0 0 0 0 0 0 0 0 0 0 0.25 0"/>
      <feBlend in2="BackgroundImageFix" result="effect1_dropShadow_481_3611"/>
      <feBlend in="SourceGraphic" in2="effect1_dropShadow_481_3611" result="shape"/>
    </filter>
  </defs>
</svg>
