<svg width="20" height="32" viewBox="0 0 20 32" fill="none" xmlns="http://www.w3.org/2000/svg">
<path d="M7.68 0.800049C7.93461 0.800049 8.17879 0.901191 8.35882 1.08123C8.53886 1.26126 8.64 1.50544 8.64 1.76005V6.56005H14.4V1.76005C14.4 1.50544 14.5011 1.26126 14.6812 1.08123C14.8612 0.901191 15.1054 0.800049 15.36 0.800049C15.6146 0.800049 15.8588 0.901191 16.0388 1.08123C16.2189 1.26126 16.32 1.50544 16.32 1.76005V6.56005H18.24C18.4946 6.56005 18.7388 6.66119 18.9188 6.84123C19.0989 7.02126 19.2 7.26544 19.2 7.52005V13.28C19.2 15.0623 18.492 16.7716 17.2318 18.0318C15.9715 19.2921 14.2623 20 12.48 20C12.4762 20.8333 12.4608 21.6224 12.4032 22.3425C12.3245 23.3293 12.1613 24.2682 11.7946 25.0765C11.4232 25.9317 10.7643 26.6299 9.93216 27.0503C9.072 27.4881 8.00448 27.68 6.72 27.68C4.80384 27.68 3.6288 28.3137 2.92992 29.0586C2.29861 29.7248 1.9385 30.6025 1.92 31.5201H0C0 30.3373 0.44544 28.8954 1.53024 27.7415C2.63808 26.5664 4.34112 25.76 6.72 25.76C7.83552 25.76 8.56704 25.5911 9.05856 25.3396C9.52128 25.1034 9.82656 24.7636 10.0454 24.2836C10.2778 23.7729 10.416 23.0912 10.487 22.1908C10.5389 21.538 10.5542 20.8122 10.5581 20C8.77616 19.9995 7.06739 19.2913 5.80756 18.0311C4.54773 16.7709 3.84 15.062 3.84 13.28V7.52005C3.84 7.26544 3.94114 7.02126 4.12118 6.84123C4.30121 6.66119 4.54539 6.56005 4.8 6.56005H6.72V1.76005C6.72 1.50544 6.82114 1.26126 7.00118 1.08123C7.18121 0.901191 7.42539 0.800049 7.68 0.800049ZM5.76 8.48005V13.28C5.76 14.5531 6.26571 15.774 7.16589 16.6742C8.06606 17.5743 9.28696 18.08 10.56 18.08H12.48C13.753 18.08 14.9739 17.5743 15.8741 16.6742C16.7743 15.774 17.28 14.5531 17.28 13.28V8.48005H5.76Z" fill="white"/>
</svg>
