<svg fill="none" xmlns="http://www.w3.org/2000/svg" viewBox="0 0 2391 2048">
  <path fill-rule="evenodd" clip-rule="evenodd" d="M2390.21 12.385c-489.78 76.613-864.48 500.372-864.48 1011.645 0 511.21 374.6 934.92 864.27 1011.62-51.98 8.13-105.26 12.35-159.52 12.35-565.54 0-1024-458.46-1024-1024S1664.94 0 2230.48 0c54.33 0 107.68 4.232 159.73 12.385zM0 12.385C489.774 88.998 864.476 512.757 864.476 1024.03c0 511.21-374.596 934.92-864.268 1011.62 51.982 8.13 105.26 12.35 159.524 12.35 565.54 0 1023.998-458.46 1023.998-1024S725.272 0 159.732 0C105.396 0 52.048 4.232 0 12.385z" fill="#000"/>
</svg>
